HIERARCHY
ROOT hip
{
  OFFSET 0 0 0
  CHANNELS 6 Xposition Yposition Zposition Zrotation Yrotation Xrotation
  JOINT abdomen
  {
    OFFSET 0 20.6881 -0.73152
    CHANNELS 3 Zrotation Xrotation Yrotation
    JOINT chest
    {
      OFFSET 0 11.7043 -0.48768
      CHANNELS 3 Zrotation Xrotation Yrotation
      JOINT neck
      {
        OFFSET 0 22.1894 -2.19456
        CHANNELS 3 Zrotation Xrotation Yrotation
        JOINT head
        {
          OFFSET -0.24384 7.07133 1.2192
          CHANNELS 3 Zrotation Xrotation Yrotation
          JOINT leftEye
          {
            OFFSET 4.14528 8.04674 8.04672
            CHANNELS 3 Zrotation Xrotation Yrotation
            End Site
            {
              OFFSET 1 0 0
            }
          }
          JOINT rightEye
          {
            OFFSET -3.6576 8.04674 8.04672
            CHANNELS 3 Zrotation Xrotation Yrotation
            End Site
            {
              OFFSET 1 0 0
            }
          }
        }
      }
      JOINT rCollar
      {
        OFFSET -2.68224 19.2634 -4.8768
        CHANNELS 3 Zrotation Xrotation Yrotation
        JOINT rShldr
        {
          OFFSET -8.77824 -1.95073 1.46304
          CHANNELS 3 Zrotation Xrotation Yrotation
          JOINT rForeArm
          {
            OFFSET -28.1742 -1.7115 0.48768
            CHANNELS 3 Zrotation Xrotation Yrotation
            JOINT rHand
            {
              OFFSET -22.5879 0.773209 7.07136
              CHANNELS 3 Zrotation Xrotation Yrotation
              JOINT rThumb1
              {
                OFFSET -1.2192 -0.487915 3.41376
                CHANNELS 3 Zrotation Xrotation Yrotation
                JOINT rThumb2
                {
                  OFFSET -3.37035 -0.52449 3.41376
                  CHANNELS 3 Zrotation Xrotation Yrotation
                  End Site
                  {
                    OFFSET -1.78271 -1.18214 1.43049
                  }
                }
              }
              JOINT rIndex1
              {
                OFFSET -7.75947 0.938293 5.60832
                CHANNELS 3 Zrotation Xrotation Yrotation
                JOINT rIndex2
                {
                  OFFSET -2.54057 -0.884171 1.56538
                  CHANNELS 3 Zrotation Xrotation Yrotation
                  End Site
                  {
                    OFFSET -1.62519 -0.234802 1.16502
                  }
                }
              }
              JOINT rMid1
              {
                OFFSET -8.24714 1.18213 3.41376
                CHANNELS 3 Zrotation Xrotation Yrotation
                JOINT rMid2
                {
                  OFFSET -3.10165 -0.590103 1.0647
                  CHANNELS 3 Zrotation Xrotation Yrotation
                  End Site
                  {
                    OFFSET -2.48547 -0.328903 0.83742
                  }
                }
              }
              JOINT rRing1
              {
                OFFSET -8.82822 0.546677 1.51678
                CHANNELS 3 Zrotation Xrotation Yrotation
                JOINT rRing2
                {
                  OFFSET -2.60934 -0.819778 -0.0198488
                  CHANNELS 3 Zrotation Xrotation Yrotation
                  End Site
                  {
                    OFFSET -2.33842 -0.294052 0.168128
                  }
                }
              }
              JOINT rPinky1
              {
                OFFSET -8.27202 -0.0477905 -0.4584
                CHANNELS 3 Zrotation Xrotation Yrotation
                JOINT rPinky2
                {
                  OFFSET -1.82734 -0.647385 -0.700984
                  CHANNELS 3 Zrotation Xrotation Yrotation
                  End Site
                  {
                    OFFSET -1.69225 -0.51767 -0.607171
                  }
                }
              }
            }
          }
        }
      }
      JOINT lCollar
      {
        OFFSET 2.68224 19.2634 -4.8768
        CHANNELS 3 Zrotation Xrotation Yrotation
        JOINT lShldr
        {
          OFFSET 8.77824 -1.95073 1.46304
          CHANNELS 3 Zrotation Xrotation Yrotation
          JOINT lForeArm
          {
            OFFSET 28.1742 -1.7115 0.48768
            CHANNELS 3 Zrotation Xrotation Yrotation
            JOINT lHand
            {
              OFFSET 22.5879 0.773209 7.07136
              CHANNELS 3 Zrotation Xrotation Yrotation
              JOINT lThumb1
              {
                OFFSET 1.2192 -0.487915 3.41376
                CHANNELS 3 Zrotation Xrotation Yrotation
                JOINT lThumb2
                {
                  OFFSET 3.37035 -0.52449 3.41376
                  CHANNELS 3 Zrotation Xrotation Yrotation
                  End Site
                  {
                    OFFSET 1.78271 -1.18214 1.43049
                  }
                }
              }
              JOINT lIndex1
              {
                OFFSET 7.75947 0.938293 5.60832
                CHANNELS 3 Zrotation Xrotation Yrotation
                JOINT lIndex2
                {
                  OFFSET 2.54057 -0.884171 1.56538
                  CHANNELS 3 Zrotation Xrotation Yrotation
                  End Site
                  {
                    OFFSET 1.62519 -0.234802 1.16502
                  }
                }
              }
              JOINT lMid1
              {
                OFFSET 8.24714 1.18213 3.41376
                CHANNELS 3 Zrotation Xrotation Yrotation
                JOINT lMid2
                {
                  OFFSET 3.10165 -0.590103 1.0647
                  CHANNELS 3 Zrotation Xrotation Yrotation
                  End Site
                  {
                    OFFSET 2.48547 -0.328903 0.83742
                  }
                }
              }
              JOINT lRing1
              {
                OFFSET 8.82822 0.546677 1.51678
                CHANNELS 3 Zrotation Xrotation Yrotation
                JOINT lRing2
                {
                  OFFSET 2.60934 -0.819778 -0.0198488
                  CHANNELS 3 Zrotation Xrotation Yrotation
                  End Site
                  {
                    OFFSET 2.33842 -0.294052 0.168128
                  }
                }
              }
              JOINT lPinky1
              {
                OFFSET 8.27202 -0.0477905 -0.4584
                CHANNELS 3 Zrotation Xrotation Yrotation
                JOINT lPinky2
                {
                  OFFSET 1.82734 -0.647385 -0.700984
                  CHANNELS 3 Zrotation Xrotation Yrotation
                  End Site
                  {
                    OFFSET 1.69225 -0.51767 -0.607171
                  }
                }
              }
            }
          }
        }
      }
    }
  }
  JOINT rButtock
  {
    OFFSET -8.77824 4.35084 1.2192
    CHANNELS 3 Zrotation Xrotation Yrotation
    JOINT rThigh
    {
      OFFSET 0 -1.70687 -2.19456
      CHANNELS 3 Zrotation Xrotation Yrotation
      JOINT rShin
      {
        OFFSET 0 -36.8199 0.73152
        CHANNELS 3 Zrotation Xrotation Yrotation
        JOINT rFoot
        {
          OFFSET 0.73152 -45.1104 -5.12064
          CHANNELS 3 Zrotation Xrotation Yrotation
          End Site
          {
            OFFSET -1.1221 -3.69964 12.103
          }
        }
      }
    }
  }
  JOINT lButtock
  {
    OFFSET 8.77824 4.35084 1.2192
    CHANNELS 3 Zrotation Xrotation Yrotation
    JOINT lThigh
    {
      OFFSET 0 -1.70687 -2.19456
      CHANNELS 3 Zrotation Xrotation Yrotation
      JOINT lShin
      {
        OFFSET 0 -36.8199 0.73152
        CHANNELS 3 Zrotation Xrotation Yrotation
        JOINT lFoot
        {
          OFFSET -0.73152 -45.1104 -5.12064
          CHANNELS 3 Zrotation Xrotation Yrotation
          End Site
          {
            OFFSET 1.1221 -3.69964 12.103
          }
        }
      }
    }
  }
}
MOTION
Frames:	9
Frame Time:	0.00833333
-173.492 85.4571 22.3775 0.0 0.0 0.0 1.92988 -0.00172178 0.0523826 0.532082 0.00507114 0.0921225 9.05944e-15 0.0 -3.23025e-16 2.71279e-14 3.18055e-15 -1.12127e-15 -0.0 0.0 0.0 -0.0 0.0 0.0 4.37124e-15 -1.46565e-16 -4.96962e-17 9.50738e-14 -3.19919e-15 -2.5842e-15 1.60668e-12 -5.87607e-13 -8.5875e-14 1.85266e-11 -6.34869e-14 -7.91958e-13 4.3674e-11 -1.41255e-12 -1.89561e-12 7.54114e-11 -2.43949e-12 -3.27279e-12 4.36774e-11 -1.41455e-12 -1.90833e-12 7.73091 5.47488 0.417314 4.36738e-11 -1.41306e-12 -1.89561e-12 2.90554 0.965183 0.102902 4.36699e-11 -1.41296e-12 -1.89641e-12 10.2786 0.731801 0.0259123 4.36654e-11 -1.40819e-12 -1.88925e-12 2.22167 -0.733487 -0.20892 4.1768e-15 -1.49089e-16 -4.47265e-16 9.18431e-14 -2.98798e-15 -4.96962e-15 1.62984e-12 3.75703e-13 -9.54166e-14 1.85148e-11 -1.03052e-12 -7.72875e-13 4.37062e-11 -1.42284e-12 -1.89243e-12 7.54853e-11 -2.46175e-12 -3.27518e-12 4.37036e-11 -1.42409e-12 -1.88607e-12 -7.73091 5.47488 -0.417314 4.37082e-11 -1.4234e-12 -1.90197e-12 -2.90554 0.965183 -0.102902 4.37031e-11 -1.423e-12 -1.89879e-12 -10.2786 0.731801 -0.0259123 4.37159e-11 -1.41853e-12 -1.90833e-12 -2.22167 -0.733487 0.20892 -2.03217e-16 0.0 -3.88251e-19 1.95937 -7.26117 -0.19201 0.00412142 7.5853 0.10707 -0.521171 -0.330677 0.052315 2.03217e-16 0.0 3.88251e-19 0.976571 -1.92613 0.000871621 0.00898794 -2.0786 0.0740697 0.487987 3.99809 -0.136754
-165.682 85.9624 12.6362 119.494 85.9593 114.9 1.5881 2.20268 0.299467 0.934016 0.147282 0.202409 0.203667 -1.13816 0.26502 1.93163 2.78219 0.531316 -0.0 0.0 0.0 -0.0 0.0 0.0 -3.98638e-15 -2.26773e-13 8.66926e-15 21.3965 9.22834 0.563628 -4.32503 -1.9865 6.732 0.00415321 1.43214 0.201049 1.13052e-10 -4.71593e-11 6.94108e-11 1.95434e-10 -8.1703e-11 1.20116e-10 1.13054e-10 -4.71583e-11 6.94008e-11 7.73091 5.47488 0.417314 1.13047e-10 -4.71571e-11 6.94156e-11 2.90554 0.965183 0.102902 1.1305e-10 -4.71565e-11 6.94098e-11 10.2786 0.731801 0.0259123 1.13046e-10 -4.71525e-11 6.94152e-11 2.22167 -0.733487 -0.20892 -4.10348e-15 -2.26775e-13 8.32605e-15 2.1875 1.29106e-09 -7.13251e-11 -4.13391e-12 -1.02065e-10 5.46675e-12 -4.24702e-12 -5.56953e-10 5.37237e-11 -1.72836e-11 -1.43279e-09 1.28989e-10 -2.94777e-11 -2.47535e-09 2.22964e-10 -1.72865e-11 -1.43279e-09 1.28995e-10 -7.73091 5.47488 -0.417314 -1.72815e-11 -1.43279e-09 1.28984e-10 -2.90554 0.965183 -0.102902 -1.7288e-11 -1.43279e-09 1.28987e-10 -10.2786 0.731801 -0.0259123 -1.72753e-11 -1.43279e-09 1.28981e-10 -2.22167 -0.733487 0.20892 -2.03217e-16 0.0 -3.88251e-19 0.0970751 -3.7506 -1.66854 0.00242353 8.95449 0.144891 -0.650527 -5.40161 -1.78491 2.03217e-16 0.0 3.88251e-19 3.21118 0.641502 -0.656972 0.000567279 -0.0278288 0.00962712 0.640504 0.603376 1.78936
-165.677 85.9397 12.7655 116.875 86.1953 112.288 1.1985 4.51772 0.554239 1.37277 0.295946 0.316329 0.450367 -2.34298 0.542835 3.85792 5.71829 1.08878 -0.0 0.0 0.0 -0.0 0.0 0.0 -1.26756e-14 -4.64912e-13 1.78751e-14 43.7954 18.9969 1.20693 -8.3928 -3.99468 13.8736 -0.00239204 2.93622 0.412622 1.98087e-10 -9.5609e-11 1.3844e-10 3.42491e-10 -1.65646e-10 2.3951e-10 1.9809e-10 -9.56046e-11 1.38433e-10 7.73091 5.47488 0.417314 1.98077e-10 -9.56039e-11 1.38451e-10 2.90554 0.965183 0.102902 1.98089e-10 -9.56026e-11 1.38439e-10 10.2786 0.731801 0.0259123 1.98084e-10 -9.55994e-11 1.38443e-10 2.22167 -0.733487 -0.20892 -1.27075e-14 -4.64914e-13 1.75893e-14 4.5 2.65591e-09 -1.46721e-10 -1.0505e-11 -2.05854e-10 1.09866e-11 -2.86229e-11 -1.12039e-09 1.07209e-10 -8.3035e-11 -2.88318e-09 2.57571e-10 -1.42638e-10 -4.98098e-09 4.45228e-10 -8.30383e-11 -2.88317e-09 2.57575e-10 -7.73091 5.47488 -0.417314 -8.30329e-11 -2.88318e-09 2.5757e-10 -2.90554 0.965183 -0.102902 -8.30409e-11 -2.88317e-09 2.57573e-10 -10.2786 0.731801 -0.0259123 -8.30283e-11 -2.88317e-09 2.5757e-10 -2.22167 -0.733487 0.20892 -2.03217e-16 0.0 -3.88251e-19 -1.67465 -0.0553452 -3.22219 -0.0014304 10.4013 0.185281 -1.14737 -10.7459 -3.78221 2.03217e-16 0.0 3.88251e-19 5.63822 3.3393 -1.34688 -0.00337387 2.14386 -0.0585164 1.04833 -2.97954 3.82007
-165.714 85.8696 12.8291 116.66 86.2133 112.251 0.847149 6.61093 0.79828 1.73624 0.431694 0.422991 0.642636 -3.41419 0.796317 5.6387 8.34367 1.60911 -0.0 0.0 0.0 -0.0 0.0 0.0 -2.07016e-14 -6.80027e-13 2.61072e-14 63.5852 27.6736 1.88465 -11.6012 -5.63111 20.286 -0.0177641 4.29621 0.604656 2.51807e-10 -1.38653e-10 2.12024e-10 4.35479e-10 -2.4023e-10 3.66895e-10 2.51809e-10 -1.38646e-10 2.12019e-10 7.73091 5.47488 0.417314 2.51793e-10 -1.38645e-10 2.12038e-10 2.90554 0.965183 0.102902 2.51811e-10 -1.38644e-10 2.12022e-10 10.2786 0.731801 0.0259123 2.51806e-10 -1.38641e-10 2.12024e-10 2.22167 -0.733487 -0.20892 -2.0664e-14 -6.80028e-13 2.58727e-14 6.5625 3.8732e-09 -2.13965e-10 -1.56614e-11 -3.06946e-10 1.65911e-11 -4.97707e-11 -1.6688e-09 1.62717e-10 -1.39263e-10 -4.29553e-09 3.90753e-10 -2.39404e-10 -7.42111e-09 6.75444e-10 -1.39267e-10 -4.29551e-09 3.90756e-10 -7.73091 5.47488 -0.417314 -1.39261e-10 -4.29553e-09 3.90755e-10 -2.90554 0.965183 -0.102902 -1.3927e-10 -4.29553e-09 3.90759e-10 -10.2786 0.731801 -0.0259123 -1.39258e-10 -4.29552e-09 3.90759e-10 -2.22167 -0.733487 0.20892 -2.03217e-16 0.0 -3.88251e-19 -3.08553 3.25525 -4.62144 -0.00651533 11.6928 0.22171 -1.91444 -15.4796 -5.64083 2.03217e-16 0.0 3.88251e-19 7.85791 5.77346 -1.98259 -0.00242842 4.0737 -0.119462 1.63144 -6.15512 5.67343
-165.718 85.8417 12.8299 116.515 86.039 112.111 0.628428 8.14996 1.0116 1.91255 0.535159 0.511501 0.67692 -4.15168 0.987792 7.16207 10.1948 2.02284 -0.0 0.0 0.0 -0.0 0.0 0.0 -2.70696e-14 -8.37579e-13 3.19049e-14 77.2935 33.6312 2.46737 -13.6184 -6.6506 24.7895 -0.0345261 5.2962 0.746481 2.27236e-10 -1.68181e-10 2.96991e-10 3.93296e-10 -2.91418e-10 5.14258e-10 2.27237e-10 -1.68173e-10 2.96987e-10 7.73091 5.47488 0.417314 2.2722e-10 -1.68174e-10 2.97007e-10 2.90554 0.965183 0.102902 2.27242e-10 -1.68172e-10 2.96989e-10 10.2786 0.731801 0.0259123 2.27236e-10 -1.6817e-10 2.96991e-10 2.22167 -0.733487 -0.20892 -2.70016e-14 -8.37579e-13 3.17062e-14 8.0 4.72161e-09 -2.60833e-10 -1.7781e-11 -4.01293e-10 2.2407e-11 -6.28482e-11 -2.17965e-09 2.23281e-10 -1.71683e-10 -5.6128e-09 5.35434e-10 -2.95184e-10 -9.69747e-09 9.25541e-10 -1.71687e-10 -5.61278e-09 5.35437e-10 -7.73091 5.47488 -0.417314 -1.71681e-10 -5.6128e-09 5.35437e-10 -2.90554 0.965183 -0.102902 -1.71691e-10 -5.6128e-09 5.35442e-10 -10.2786 0.731801 -0.0259123 -1.71678e-10 -5.61279e-09 5.35443e-10 -2.22167 -0.733487 0.20892 -2.03217e-16 0.0 -3.88251e-19 -3.97132 5.62147 -5.61923 -0.0107436 12.5959 0.247336 -2.63232 -18.7483 -6.97989 2.03217e-16 0.0 3.88251e-19 9.43898 7.55161 -2.47263 0.000910954 5.39894 -0.162021 2.17371 -8.34465 7.04142
-165.552 86.0867 12.8559 113.203 86.061 108.03 0.592596 8.93444 1.21038 1.78246 0.615803 0.583447 0.406721 -4.41884 1.10397 8.58688 10.9269 2.31235 -0.0 0.0 0.0 -0.0 0.0 0.0 -3.16338e-14 -9.17413e-13 3.41828e-14 82.7811 35.7376 2.78168 -14.367 -7.02132 26.5716 -0.044243 5.81202 0.819843 4.3563e-11 -1.8267e-10 4.57149e-10 7.66435e-11 -3.16599e-10 7.924e-10 4.3565e-11 -1.82664e-10 4.57145e-10 7.73091 5.47488 0.417314 4.35494e-11 -1.82665e-10 4.57163e-10 2.90554 0.965183 0.102902 4.35704e-11 -1.82663e-10 4.57148e-10 10.2786 0.731801 0.0259123 4.35613e-11 -1.82662e-10 4.57151e-10 2.22167 -0.733487 -0.20892 -3.15989e-14 -9.1741e-13 3.3998e-14 8.5625 5.0536e-09 -2.79172e-10 -1.45312e-11 -5.0341e-10 2.98968e-11 -6.84395e-11 -2.72898e-09 3.07273e-10 -1.76635e-10 -7.03329e-09 7.34877e-10 -3.0372e-10 -1.21532e-08 1.27032e-09 -1.76639e-10 -7.03327e-09 7.34882e-10 -7.73091 5.47488 -0.417314 -1.76634e-10 -7.03329e-09 7.34878e-10 -2.90554 0.965183 -0.102902 -1.76643e-10 -7.03328e-09 7.34885e-10 -10.2786 0.731801 -0.0259123 -1.76629e-10 -7.03328e-09 7.34886e-10 -2.22167 -0.733487 0.20892 -2.03217e-16 0.0 -3.88251e-19 -4.33132 6.69912 -6.0421 -0.0119656 12.9568 0.257485 -2.93078 -20.0083 -7.4494 2.03217e-16 0.0 3.88251e-19 10.0326 8.43564 -2.77161 0.00319258 5.8687 -0.178436 2.44865 -9.17484 7.71626
-165.536 86.088 12.9627 114.143 86.2844 108.901 0.692924 9.179 1.39633 1.4357 0.679083 0.64314 -0.0800871 -4.35025 1.1655 9.94531 10.8622 2.50801 -0.0 0.0 0.0 -0.0 0.0 0.0 -3.48848e-14 -9.41596e-13 3.39518e-14 82.4731 35.099 2.84861 -14.2967 -6.99026 26.3974 -0.0465088 5.98111 0.843853 -2.51396e-10 -1.8623e-10 6.68195e-10 -4.32e-10 -3.22881e-10 1.15906e-09 -2.51394e-10 -1.86229e-10 6.68189e-10 7.73091 5.47488 0.417314 -2.51405e-10 -1.8623e-10 6.68202e-10 2.90554 0.965183 0.102902 -2.51389e-10 -1.8623e-10 6.68193e-10 10.2786 0.731801 0.0259123 -2.51402e-10 -1.86229e-10 6.68199e-10 2.22167 -0.733487 -0.20892 -3.49282e-14 -9.41591e-13 3.37654e-14 8.5 5.01671e-09 -2.77135e-10 -7.49924e-12 -6.10259e-10 3.85165e-11 -6.85018e-11 -3.30144e-09 4.0722e-10 -1.61688e-10 -8.51625e-09 9.71596e-10 -2.78027e-10 -1.47176e-08 1.67953e-09 -1.61692e-10 -8.51623e-09 9.71603e-10 -7.73091 5.47488 -0.417314 -1.61687e-10 -8.51625e-09 9.7159e-10 -2.90554 0.965183 -0.102902 -1.61695e-10 -8.51624e-09 9.71602e-10 -10.2786 0.731801 -0.0259123 -1.6168e-10 -8.51625e-09 9.71601e-10 -2.22167 -0.733487 0.20892 -2.03217e-16 0.0 -3.88251e-19 -4.35592 6.86015 -6.04543 -0.010623 12.9304 0.256454 -2.84796 -19.8464 -7.26225 2.03217e-16 0.0 3.88251e-19 9.90821 8.68077 -2.93019 0.0037277 5.72784 -0.176046 2.47789 -9.04276 7.88236
-165.534 86.0878 13.0219 114.434 86.287 109.183 0.880731 9.174 1.52694 1.07409 0.699622 0.683763 -0.53641 -4.15268 1.18542 10.9393 10.5377 2.60973 -0.0 0.0 0.0 -0.0 0.0 0.0 -3.67829e-14 -9.38931e-13 3.28961e-14 79.7897 33.4476 2.78333 -13.8983 -6.79806 25.4387 -0.0449646 5.97999 0.843589 -5.1168e-10 -1.7921e-10 8.04788e-10 -8.81073e-10 -3.10809e-10 1.39663e-09 -5.11676e-10 -1.79213e-10 8.0478e-10 7.73091 5.47488 0.417314 -5.11683e-10 -1.79215e-10 8.04789e-10 2.90554 0.965183 0.102902 -5.11673e-10 -1.79216e-10 8.04787e-10 10.2786 0.731801 0.0259123 -5.11689e-10 -1.79215e-10 8.04795e-10 2.22167 -0.733487 -0.20892 -3.69081e-14 -9.38924e-13 3.2702e-14 8.1875 4.83227e-09 -2.66946e-10 -7.43131e-13 -6.91458e-10 4.53838e-11 -6.02534e-11 -3.73749e-09 4.87392e-10 -1.294e-10 -9.64607e-09 1.16136e-09 -2.22426e-10 -1.66716e-08 2.00758e-09 -1.29404e-10 -9.64606e-09 1.16137e-09 -7.73091 5.47488 -0.417314 -1.294e-10 -9.64607e-09 1.16135e-09 -2.90554 0.965183 -0.102902 -1.29407e-10 -9.64606e-09 1.16137e-09 -10.2786 0.731801 -0.0259123 -1.2939e-10 -9.64607e-09 1.16136e-09 -2.22167 -0.733487 0.20892 -2.03217e-16 0.0 -3.88251e-19 -4.18558 6.62431 -5.86445 -0.00830435 12.7466 0.250767 -2.62704 -19.1182 -6.84161 2.03217e-16 0.0 3.88251e-19 9.55625 8.63535 -2.99814 0.00366007 5.35721 -0.166118 2.39422 -8.53386 7.8052
-165.523 86.0965 13.0646 114.764 86.2566 109.462 1.10342 9.2098 1.5604 0.899417 0.652043 0.698501 -0.714025 -4.03285 1.17681 11.2627 10.4899 2.61897 -0.0 0.0 0.0 -0.0 0.0 0.0 -3.72882e-14 -9.38219e-13 3.27001e-14 78.137 32.5147 2.70743 -13.6579 -6.68168 24.8683 -0.0441371 5.98516 0.844263 -5.91324e-10 -1.61957e-10 7.41591e-10 -1.01902e-09 -2.80929e-10 1.28751e-09 -5.9132e-10 -1.61962e-10 7.41581e-10 7.73091 5.47488 0.417314 -5.91324e-10 -1.61964e-10 7.41588e-10 2.90554 0.965183 0.102902 -5.91317e-10 -1.61966e-10 7.4159e-10 10.2786 0.731801 0.0259123 -5.91336e-10 -1.61965e-10 7.416e-10 2.22167 -0.733487 -0.20892 -3.74573e-14 -9.3821e-13 3.25013e-14 8.0 4.72161e-09 -2.60833e-10 1.67933e-12 -7.16629e-10 4.76161e-11 -4.09125e-11 -3.87756e-09 5.1206e-10 -8.23288e-11 -1.00071e-08 1.21995e-09 -1.4124e-10 -1.72962e-08 2.10883e-09 -8.2333e-11 -1.00071e-08 1.21996e-09 -7.73091 5.47488 -0.417314 -8.23295e-11 -1.00071e-08 1.21994e-09 -2.90554 0.965183 -0.102902 -8.23353e-11 -1.00071e-08 1.21995e-09 -10.2786 0.731801 -0.0259123 -8.23181e-11 -1.00071e-08 1.21995e-09 -2.22167 -0.733487 0.20892 -2.03217e-16 0.0 -3.88251e-19 -3.95261 6.51039 -5.73651 -0.00662656 12.6351 0.246958 -2.50602 -18.6814 -6.60919 2.03217e-16 0.0 3.88251e-19 9.47362 8.64734 -3.02658 0.00409961 5.13767 -0.15991 2.34154 -8.23137 7.75195
